<svg width="16" height="20" viewBox="0 0 16 20" fill="none" xmlns="http://www.w3.org/2000/svg">
<path d="M9.66732 1.89154V5.33366C9.66732 5.80037 9.66732 6.03372 9.75815 6.21198C9.83804 6.36879 9.96552 6.49627 10.1223 6.57616C10.3006 6.66699 10.5339 6.66699 11.0007 6.66699H14.4428M14.6673 8.32385V14.3337C14.6673 15.7338 14.6673 16.4339 14.3948 16.9686C14.1552 17.439 13.7727 17.8215 13.3023 18.0612C12.7675 18.3337 12.0674 18.3337 10.6673 18.3337H5.33398C3.93385 18.3337 3.23379 18.3337 2.69901 18.0612C2.2286 17.8215 1.84615 17.439 1.60647 16.9686C1.33398 16.4339 1.33398 15.7338 1.33398 14.3337V5.66699C1.33398 4.26686 1.33398 3.5668 1.60647 3.03202C1.84615 2.56161 2.2286 2.17916 2.69901 1.93948C3.23379 1.66699 3.93385 1.66699 5.33398 1.66699H8.01046C8.62194 1.66699 8.92768 1.66699 9.2154 1.73607C9.47049 1.79731 9.71435 1.89832 9.93803 2.03539C10.1903 2.19 10.4065 2.40619 10.8389 2.83857L13.4957 5.49542C13.9281 5.9278 14.1443 6.14399 14.2989 6.39628C14.436 6.61996 14.537 6.86382 14.5982 7.11891C14.6673 7.40663 14.6673 7.71237 14.6673 8.32385Z" stroke="white" stroke-width="1.66667" stroke-linecap="round" stroke-linejoin="round"/>
</svg>
